<svg width="201" height="118" viewBox="0 0 201 118" fill="none" xmlns="http://www.w3.org/2000/svg">
<path d="M20.5275 51.581L18.521 53.8163V58.7694H13.2037V38.957H18.521V47.1924L25.8709 38.957H31.7814L24.0258 47.7296L32.1892 58.7694H25.9516L20.5275 51.581Z" fill="#424141"/>
<path d="M51.6615 38.957V58.7694H47.2406L38.8612 48.2122V58.7694H33.5985V38.957H38.0194L46.4009 49.5142V38.957H51.6615Z" fill="#424141"/>
<path d="M65.0324 59.1658C63.0258 59.1658 61.2222 58.7231 59.6213 57.8365C58.0216 56.9488 56.7653 55.7219 55.8526 54.1558C54.9393 52.5898 54.4829 50.8257 54.4829 48.8636C54.4829 46.9015 54.9393 45.1374 55.8526 43.5714C56.7653 42.0042 58.0216 40.7773 59.6213 39.8907C61.2222 39.0029 63.0258 38.5591 65.0324 38.5591C67.0389 38.5591 68.8415 39.0029 70.4412 39.8907C72.0421 40.7773 73.2989 42.0042 74.2121 43.5714C75.1249 45.1374 75.5818 46.9015 75.5818 48.8636C75.5818 50.8257 75.1249 52.5898 74.2121 54.1558C73.2989 55.7219 72.0421 56.9488 70.4412 57.8365C68.8415 58.7231 67.0389 59.1658 65.0324 59.1658ZM65.0324 54.5246C65.9904 54.5246 66.8578 54.289 67.6343 53.8167C68.4118 53.3449 69.0268 52.6797 69.4794 51.8204C69.9314 50.9617 70.1577 49.9761 70.1577 48.8636C70.1577 47.7499 69.9314 46.7643 69.4794 45.9068C69.0268 45.0481 68.4118 44.3828 67.6343 43.9105C66.8578 43.4388 65.9904 43.2026 65.0324 43.2026C64.0738 43.2026 63.2058 43.4388 62.4283 43.9105C61.6518 44.3828 61.0373 45.0481 60.5853 45.9068C60.1328 46.7643 59.907 47.7499 59.907 48.8636C59.907 49.9761 60.1328 50.9617 60.5853 51.8204C61.0373 52.6797 61.6518 53.3449 62.4283 53.8167C63.2058 54.289 64.0738 54.5246 65.0324 54.5246Z" fill="#424141"/>
<path d="M28.4467 80.0774V84.409H13.2037V64.5967H28.0934V68.9261H18.521V72.2653H26.9549V76.4559H18.521V80.0774H28.4467Z" fill="#424141"/>
<path d="M48.5692 84.409L48.5147 73.9088L43.6336 82.456H41.2476L36.3928 74.191V84.409H31.4288V64.5967H35.8497L42.5213 76.0302L49.0316 64.5967H53.4525L53.507 84.409H48.5692Z" fill="#424141"/>
<path d="M65.9823 64.5967C67.6993 64.5967 69.1906 64.8943 70.4556 65.489C71.7216 66.0825 72.6982 66.9315 73.3846 68.0361C74.0722 69.1395 74.4162 70.4364 74.4162 71.9262C74.4162 73.4182 74.0722 74.7111 73.3846 75.8049C72.6982 76.8992 71.7216 77.7436 70.4556 78.3383C69.1906 78.9318 67.6993 79.2283 65.9823 79.2283H62.6738V84.409H57.302V64.5967H65.9823ZM65.6552 74.8147C66.7588 74.8147 67.5903 74.5643 68.1502 74.0635C68.7113 73.5628 68.9921 72.8503 68.9921 71.9262C68.9921 71.002 68.7113 70.285 68.1502 69.7751C67.5903 69.2652 66.7588 69.0103 65.6552 69.0103H62.6738V74.8147H65.6552Z" fill="#424141"/>
<path d="M77.2899 64.5967H82.6617V79.9658H91.7193V84.409H77.2899V64.5967Z" fill="#424141"/>
<path d="M103.408 84.805C101.402 84.805 99.5979 84.3623 97.9971 83.4757C96.3973 82.5879 95.141 81.3611 94.2283 79.795C93.315 78.229 92.8586 76.4649 92.8586 74.5028C92.8586 72.5406 93.315 70.7766 94.2283 69.2105C95.141 67.6433 96.3973 66.4164 97.9971 65.5298C99.5979 64.6421 101.402 64.1982 103.408 64.1982C105.415 64.1982 107.217 64.6421 108.817 65.5298C110.418 66.4164 111.675 67.6433 112.588 69.2105C113.501 70.7766 113.958 72.5406 113.958 74.5028C113.958 76.4649 113.501 78.229 112.588 79.795C111.675 81.3611 110.418 82.5879 108.817 83.4757C107.217 84.3623 105.415 84.805 103.408 84.805ZM103.408 80.1638C104.366 80.1638 105.234 79.9282 106.01 79.4558C106.788 78.9841 107.403 78.3189 107.855 77.4596C108.307 76.6009 108.533 75.6153 108.533 74.5028C108.533 73.3891 108.307 72.4035 107.855 71.5459C107.403 70.6872 106.788 70.022 106.01 69.5497C105.234 69.0779 104.366 68.8418 103.408 68.8418C102.45 68.8418 101.582 69.0779 100.804 69.5497C100.028 70.022 99.4131 70.6872 98.9611 71.5459C98.5085 72.4035 98.2828 73.3891 98.2828 74.5028C98.2828 75.6153 98.5085 76.6009 98.9611 77.4596C99.4131 78.3189 100.028 78.9841 100.804 79.4558C101.582 79.9282 102.45 80.1638 103.408 80.1638Z" fill="#424141"/>
<path d="M126.95 77.3049V84.409H121.578V77.2207L114.337 64.5967H120.006L124.507 72.4633L129.011 64.5967H134.217L126.95 77.3049Z" fill="#424141"/>
<path d="M150.815 80.0774V84.409H135.572V64.5967H150.462V68.9261H140.89V72.2653H149.324V76.4559H140.89V80.0774H150.815Z" fill="#424141"/>
<path d="M169.04 80.0774V84.409H153.797V64.5967H168.687V68.9261H159.115V72.2653H167.549V76.4559H159.115V80.0774H169.04Z" fill="#424141"/>
<mask id="mask0_1_655" style="mask-type:luminance" maskUnits="userSpaceOnUse" x="76" y="36" width="28" height="24">
<path d="M76.2125 36.2803H103.85V59.1616H76.2125V36.2803Z" fill="white"/>
</mask>
<g mask="url(#mask0_1_655)">
<path d="M102.849 37.1118L102.676 36.9752C102.11 36.4989 101.415 36.2946 100.763 36.3629C100.067 36.4306 99.4368 36.7488 98.9799 37.3155L93.1108 44.5301L89.6327 48.909L87.0891 52.1076L85.3503 50.1797L84.3721 49.1133L80.9376 45.37C80.4376 44.8254 79.7855 44.5528 79.0898 44.5079C78.4377 44.4623 77.7419 44.7571 77.2419 45.2562L77.068 45.4377C76.0031 46.4586 75.9813 48.2284 76.9595 49.3175L80.3504 53.0381L81.3286 54.1494L85.2418 58.4379C85.6982 58.9142 86.3067 59.2317 86.8939 59.2545C86.937 59.2545 86.937 59.2545 86.9588 59.2545C87.0024 59.2545 87.0242 59.2545 87.0891 59.2545C87.0891 59.2545 87.0891 59.2545 87.1327 59.2545C87.2418 59.2545 87.3285 59.2545 87.4588 59.2545C88.1545 59.1862 88.7848 58.8686 89.2412 58.3013L95.0672 51.0868L97.3496 48.2056L103.176 40.9911C104.088 39.8342 103.958 38.1099 102.849 37.1118Z" fill="#37A408"/>
</g>
<mask id="mask1_1_655" style="mask-type:luminance" maskUnits="userSpaceOnUse" x="88" y="36" width="29" height="24">
<path d="M88.4958 36.2803H116.133V59.1616H88.4958V36.2803Z" fill="white"/>
</mask>
<g mask="url(#mask1_1_655)">
<path d="M115.163 37.1118L114.989 36.9752C114.424 36.4989 113.728 36.2946 113.076 36.3629C112.38 36.4306 111.75 36.7488 111.294 37.3155L105.425 44.5301L101.947 48.909L99.403 52.1076L97.6642 50.1797L96.686 49.1133L93.251 45.37C92.751 44.8254 92.0989 44.5528 91.4037 44.5079C90.7515 44.4623 90.0558 44.7571 89.5558 45.2562L89.3819 45.4377C88.3165 46.4586 88.2947 48.2284 89.2734 49.3175L92.6643 53.0381L93.6424 54.1494L97.5551 58.4379C98.0115 58.9142 98.6206 59.2317 99.2072 59.2545C99.2509 59.2545 99.2509 59.2545 99.2727 59.2545C99.3163 59.2545 99.3376 59.2545 99.403 59.2545C99.403 59.2545 99.403 59.2545 99.4466 59.2545C99.5551 59.2545 99.6424 59.2545 99.7727 59.2545C100.468 59.1862 101.099 58.8686 101.555 58.3013L107.381 51.0868L109.663 48.2056L115.489 40.9911C116.402 39.8342 116.272 38.1099 115.163 37.1118Z" fill="#53EB12"/>
</g>
<mask id="mask2_1_655" style="mask-type:luminance" maskUnits="userSpaceOnUse" x="85" y="40" width="12" height="17">
<path d="M85.5646 40.1055H96.0251V56.034H85.5646V40.1055Z" fill="white"/>
</mask>
<g mask="url(#mask2_1_655)">
<path d="M112.27 33.9842L112.096 33.8482C111.532 33.3713 110.836 33.1676 110.184 33.2353C109.488 33.3036 108.858 33.6211 108.401 34.1885L102.532 41.403L99.0541 45.7814L96.5105 48.9806L94.7717 47.0521L93.793 45.9857L90.3585 42.2424C89.8585 41.6978 89.2063 41.4258 88.5112 41.3803C87.8585 41.3347 87.1633 41.6295 86.6633 42.1291L86.4894 42.3101C85.424 43.3316 85.4022 45.1008 86.3803 46.1899L89.7718 49.9104L90.7499 51.0224L94.6626 55.3102C95.119 55.7866 95.7281 56.1041 96.3147 56.1268C96.3584 56.1268 96.3584 56.1268 96.3802 56.1268C96.4238 56.1268 96.4451 56.1268 96.5105 56.1268C96.5105 56.1268 96.5105 56.1268 96.5541 56.1268C96.6626 56.1268 96.7498 56.1268 96.8802 56.1268C97.5759 56.0591 98.2062 55.741 98.6626 55.1742L104.489 47.9597L106.771 45.078L112.596 37.8635C113.51 36.7066 113.379 34.9823 112.27 33.9842Z" fill="#53EB12"/>
</g>
</svg>
