<svg width="203" height="112" viewBox="0 0 203 112" fill="none" xmlns="http://www.w3.org/2000/svg">
<path d="M20.7326 48.9821L18.7061 51.1037V55.8049H13.3359V37H18.7061V44.8167L26.1292 37H32.0985L24.2657 45.3265L32.5104 55.8049H26.2107L20.7326 48.9821Z" fill="#A5A5A5"/>
<path d="M52.1755 36.9763V55.7813H47.7106L39.2479 45.7609V55.7813H33.9328V36.9763H38.3977L46.8626 46.9967V36.9763H52.1755Z" fill="#A5A5A5"/>
<path d="M65.6794 56.1572C63.653 56.1572 61.8313 55.737 60.2146 54.8955C58.5989 54.0529 57.3301 52.8884 56.4083 51.402C55.4859 49.9156 55.025 48.2412 55.025 46.3788C55.025 44.5165 55.4859 42.8421 56.4083 41.3557C57.3301 39.8682 58.5989 38.7037 60.2146 37.8622C61.8313 37.0196 63.653 36.5983 65.6794 36.5983C67.7059 36.5983 69.5264 37.0196 71.1421 37.8622C72.7589 38.7037 74.0282 39.8682 74.9506 41.3557C75.8724 42.8421 76.3339 44.5165 76.3339 46.3788C76.3339 48.2412 75.8724 49.9156 74.9506 51.402C74.0282 52.8884 72.7589 54.0529 71.1421 54.8955C69.5264 55.737 67.7059 56.1572 65.6794 56.1572ZM65.6794 51.752C66.647 51.752 67.5231 51.5284 68.3073 51.0801C69.0925 50.6323 69.7137 50.0009 70.1707 49.1853C70.6272 48.3703 70.8558 47.4348 70.8558 46.3788C70.8558 45.3218 70.6272 44.3863 70.1707 43.5723C69.7137 42.7573 69.0925 42.1259 68.3073 41.6776C67.5231 41.2298 66.647 41.0057 65.6794 41.0057C64.7114 41.0057 63.8347 41.2298 63.0494 41.6776C62.2653 42.1259 61.6447 42.7573 61.1882 43.5723C60.7311 44.3863 60.5031 45.3218 60.5031 46.3788C60.5031 47.4348 60.7311 48.3703 61.1882 49.1853C61.6447 50.0009 62.2653 50.6323 63.0494 51.0801C63.8347 51.5284 64.7114 51.752 65.6794 51.752Z" fill="#A5A5A5"/>
<path d="M28.7297 76.0057V80.1171H13.3351V61.3121H28.3729V65.4214H18.7052V68.5908H27.2231V72.5683H18.7052V76.0057H28.7297Z" fill="#A5A5A5"/>
<path d="M49.0525 80.1171L48.9975 70.1507L44.0678 78.2634H41.6581L36.7549 70.4186V80.1171H31.7416V61.3121H36.2064L42.9445 72.1643L49.5195 61.3121H53.9843L54.0394 80.1171H49.0525Z" fill="#A5A5A5"/>
<path d="M66.6389 61.3121C68.373 61.3121 69.8791 61.5946 71.1566 62.159C72.4353 62.7224 73.4215 63.5283 74.1148 64.5766C74.8092 65.6239 75.1567 66.8549 75.1567 68.2689C75.1567 69.6851 74.8092 70.9123 74.1148 71.9504C73.4215 72.9891 72.4353 73.7906 71.1566 74.355C69.8791 74.9184 68.373 75.1998 66.6389 75.1998H63.2974V80.1171H57.8722V61.3121H66.6389ZM66.3085 71.0106C67.4231 71.0106 68.2628 70.7729 68.8284 70.2976C69.395 69.8223 69.6786 69.1461 69.6786 68.2689C69.6786 67.3918 69.395 66.7112 68.8284 66.2273C68.2628 65.7433 67.4231 65.5013 66.3085 65.5013H63.2974V71.0106H66.3085Z" fill="#A5A5A5"/>
<path d="M78.059 61.3121H83.4842V75.8998H92.632V80.1171H78.059V61.3121Z" fill="#A5A5A5"/>
<path d="M104.437 80.493C102.411 80.493 100.589 80.0728 98.9722 79.2313C97.3565 78.3887 96.0878 77.2242 95.1659 75.7378C94.2436 74.2514 93.7827 72.577 93.7827 70.7146C93.7827 68.8523 94.2436 67.1779 95.1659 65.6915C96.0878 64.204 97.3565 63.0395 98.9722 62.198C100.589 61.3554 102.411 60.9341 104.437 60.9341C106.464 60.9341 108.284 61.3554 109.9 62.198C111.517 63.0395 112.786 64.204 113.708 65.6915C114.63 67.1779 115.091 68.8523 115.091 70.7146C115.091 72.577 114.63 74.2514 113.708 75.7378C112.786 77.2242 111.517 78.3887 109.9 79.2313C108.284 80.0728 106.464 80.493 104.437 80.493ZM104.437 76.0878C105.405 76.0878 106.281 75.8642 107.065 75.4159C107.85 74.9681 108.471 74.3367 108.928 73.5211C109.385 72.7061 109.613 71.7706 109.613 70.7146C109.613 69.6576 109.385 68.7221 108.928 67.9082C108.471 67.0931 107.85 66.4617 107.065 66.0134C106.281 65.5656 105.405 65.3415 104.437 65.3415C103.469 65.3415 102.592 65.5656 101.807 66.0134C101.023 66.4617 100.402 67.0931 99.9458 67.9082C99.4887 68.7221 99.2607 69.6576 99.2607 70.7146C99.2607 71.7706 99.4887 72.7061 99.9458 73.5211C100.402 74.3367 101.023 74.9681 101.807 75.4159C102.592 75.8642 103.469 76.0878 104.437 76.0878Z" fill="#A5A5A5"/>
<path d="M128.213 73.3742V80.1171H122.788V73.2942L115.475 61.3121H121.2L125.746 68.7788L130.295 61.3121H135.552L128.213 73.3742Z" fill="#A5A5A5"/>
<path d="M152.316 76.0057V80.1171H136.921V61.3121H151.959V65.4214H142.292V68.5908H150.809V72.5683H142.292V76.0057H152.316Z" fill="#A5A5A5"/>
<path d="M170.722 76.0057V80.1171H155.328V61.3121H170.366V65.4214H160.698V68.5908H169.216V72.5683H160.698V76.0057H170.722Z" fill="#A5A5A5"/>
<mask id="mask0_1_428" style="mask-type:luminance" maskUnits="userSpaceOnUse" x="76" y="34" width="29" height="23">
<path d="M76.9708 34.4355H104.883V56.1534H76.9708V34.4355Z" fill="white"/>
</mask>
<g mask="url(#mask0_1_428)">
<path d="M103.873 35.2247L103.697 35.0951C103.126 34.643 102.424 34.4491 101.765 34.5139C101.063 34.5782 100.426 34.8801 99.9647 35.4181L94.0373 42.2657L90.5245 46.422L87.9557 49.458L86.1996 47.6281L85.2116 46.6159L81.743 43.063C81.238 42.5461 80.5794 42.2873 79.8767 42.2447C79.2181 42.2015 78.5155 42.4812 78.0105 42.9549L77.8348 43.1272C76.7594 44.0962 76.7373 45.776 77.7253 46.8098L81.1499 50.3411L82.1378 51.396L86.09 55.4664C86.5509 55.9184 87.1654 56.2198 87.7585 56.2414C87.802 56.2414 87.802 56.2414 87.824 56.2414C87.8681 56.2414 87.8901 56.2414 87.9557 56.2414C87.9557 56.2414 87.9557 56.2414 87.9997 56.2414C88.1098 56.2414 88.1974 56.2414 88.329 56.2414C89.0317 56.1766 89.6682 55.8752 90.1292 55.3367L96.0131 48.489L98.3182 45.7544L104.202 38.9067C105.124 37.8086 104.992 36.1721 103.873 35.2247Z" fill="#37A408"/>
</g>
<mask id="mask1_1_428" style="mask-type:luminance" maskUnits="userSpaceOnUse" x="89" y="34" width="29" height="23">
<path d="M89.3764 34.4355H117.289V56.1534H89.3764V34.4355Z" fill="white"/>
</mask>
<g mask="url(#mask1_1_428)">
<path d="M116.309 35.2247L116.133 35.0951C115.563 34.643 114.86 34.4491 114.201 34.5139C113.499 34.5782 112.862 34.8801 112.401 35.4181L106.474 42.2657L102.961 46.422L100.392 49.458L98.636 47.6281L97.6481 46.6159L94.1789 43.063C93.6739 42.5461 93.0153 42.2873 92.3132 42.2447C91.6546 42.2015 90.9519 42.4812 90.4469 42.9549L90.2713 43.1272C89.1953 44.0962 89.1732 45.776 90.1617 46.8098L93.5863 50.3411L94.5742 51.396L98.5259 55.4664C98.9868 55.9184 99.6019 56.2198 100.194 56.2414C100.238 56.2414 100.238 56.2414 100.26 56.2414C100.305 56.2414 100.326 56.2414 100.392 56.2414C100.392 56.2414 100.392 56.2414 100.436 56.2414C100.546 56.2414 100.634 56.2414 100.765 56.2414C101.468 56.1766 102.105 55.8752 102.566 55.3367L108.45 48.489L110.755 45.7544L116.638 38.9067C117.56 37.8086 117.429 36.1721 116.309 35.2247Z" fill="#53EB12"/>
</g>
<mask id="mask2_1_428" style="mask-type:luminance" maskUnits="userSpaceOnUse" x="86" y="38" width="11" height="16">
<path d="M86.416 38.0663H96.9806V53.1849H86.416V38.0663Z" fill="white"/>
</mask>
<g mask="url(#mask2_1_428)">
<path d="M113.387 32.2562L113.212 32.1271C112.641 31.6744 111.939 31.4811 111.28 31.5453C110.577 31.6102 109.941 31.9116 109.48 32.4501L103.552 39.2977L100.04 43.4534L97.4707 46.49L95.7146 44.6595L94.7262 43.6474L91.2575 40.0944C90.7525 39.5775 90.0939 39.3193 89.3918 39.2761C88.7327 39.2329 88.0305 39.5127 87.5256 39.9869L87.3499 40.1587C86.2739 41.1282 86.2519 42.8075 87.2398 43.8413L90.665 47.3726L91.6529 48.428L95.6045 52.4978C96.0654 52.9499 96.6805 53.2513 97.273 53.2729C97.3171 53.2729 97.3171 53.2729 97.3391 53.2729C97.3832 53.2729 97.4046 53.2729 97.4707 53.2729C97.4707 53.2729 97.4707 53.2729 97.5148 53.2729C97.6244 53.2729 97.7125 53.2729 97.8441 53.2729C98.5467 53.2086 99.1833 52.9067 99.6442 52.3687L105.528 45.521L107.833 42.7859L113.717 35.9382C114.639 34.8401 114.507 33.2035 113.387 32.2562Z" fill="#53EB12"/>
</g>
</svg>
