<svg width="28" height="28" viewBox="0 0 28 28" fill="none" xmlns="http://www.w3.org/2000/svg">
<path d="M14 2.625C9.65234 2.625 6.125 5.98227 6.125 10.1172C6.125 14.875 11.375 22.4148 13.3027 25.019C13.3828 25.1289 13.4876 25.2184 13.6088 25.28C13.73 25.3417 13.864 25.3739 14 25.3739C14.136 25.3739 14.27 25.3417 14.3912 25.28C14.5124 25.2184 14.6172 25.1289 14.6973 25.019C16.625 22.4159 21.875 14.8788 21.875 10.1172C21.875 5.98227 18.3477 2.625 14 2.625Z" stroke="white" stroke-width="2" stroke-linecap="round" stroke-linejoin="round"/>
<path d="M14 13.125C15.4497 13.125 16.625 11.9497 16.625 10.5C16.625 9.05025 15.4497 7.875 14 7.875C12.5503 7.875 11.375 9.05025 11.375 10.5C11.375 11.9497 12.5503 13.125 14 13.125Z" stroke="white" stroke-width="2" stroke-linecap="round" stroke-linejoin="round"/>
</svg>
