<?xml version="1.0" encoding="utf-8"?>
<svg viewBox="0 0 200 100" xmlns="http://www.w3.org/2000/svg">
    <g xmlns="http://www.w3.org/2000/svg" mask="url(#mask0_2019_9)">
        <path d="M143.504 45.2889L143.282 45.1223C142.559 44.541 141.67 44.2917 140.836 44.375C139.946 44.4577 139.14 44.8459 138.556 45.5375L131.052 54.3417L126.605 59.6855L123.353 63.5889L121.129 61.2361L119.879 59.9348L115.487 55.3667C114.848 54.7021 114.014 54.3695 113.125 54.3146C112.291 54.2591 111.401 54.6188 110.762 55.2278L110.54 55.4493C109.178 56.6952 109.15 58.8549 110.401 60.1841L114.736 64.7243L115.987 66.0806L120.991 71.3139C121.574 71.8952 122.352 72.2827 123.103 72.3105C123.158 72.3105 123.158 72.3105 123.186 72.3105C123.242 72.3105 123.27 72.3105 123.353 72.3105C123.353 72.3105 123.353 72.3105 123.408 72.3105C123.548 72.3105 123.659 72.3105 123.825 72.3105C124.715 72.2271 125.521 71.8396 126.104 71.1473L133.553 62.3431L136.472 58.8271L143.921 50.023C145.088 48.6111 144.921 46.507 143.504 45.2889Z"
              fill="#37A408"/>
    </g>
    <mask xmlns="http://www.w3.org/2000/svg" id="mask1_2019_9" style="mask-type:luminance" maskUnits="userSpaceOnUse"
          x="125" y="44" width="36" height="29">
        <path d="M125.151 44.2744H160.489V72.1973H125.151V44.2744Z" fill="white"/>
    </mask>
    <g xmlns="http://www.w3.org/2000/svg" mask="url(#mask1_2019_9)">
        <path d="M159.248 45.2889L159.026 45.1223C158.303 44.541 157.414 44.2917 156.58 44.375C155.69 44.4577 154.884 44.8459 154.301 45.5375L146.797 54.3417L142.35 59.6855L139.097 63.5889L136.874 61.2361L135.623 59.9348L131.231 55.3667C130.592 54.7021 129.758 54.3695 128.869 54.3146C128.036 54.2591 127.146 54.6188 126.507 55.2278L126.284 55.4493C124.922 56.6952 124.894 58.8549 126.146 60.1841L130.481 64.7243L131.732 66.0806L136.735 71.3139C137.318 71.8952 138.097 72.2827 138.847 72.3105C138.903 72.3105 138.903 72.3105 138.931 72.3105C138.986 72.3105 139.014 72.3105 139.097 72.3105C139.097 72.3105 139.097 72.3105 139.153 72.3105C139.292 72.3105 139.403 72.3105 139.57 72.3105C140.46 72.2271 141.265 71.8396 141.849 71.1473L149.298 62.3431L152.216 58.8271L159.665 50.023C160.833 48.6111 160.666 46.507 159.248 45.2889Z"
              fill="#53EB12"/>
    </g>
    <mask xmlns="http://www.w3.org/2000/svg" id="mask2_2019_9" style="mask-type:luminance" maskUnits="userSpaceOnUse"
          x="121" y="48" width="14" height="21">
        <path d="M121.403 48.9424H134.778V68.3806H121.403V48.9424Z" fill="white"/>
    </mask>
</svg>